{
  "accessors": [
    {
      "bufferView": 3,
      "componentType": 5126,
      "count": 1436,
      "max": [
        0.28082504868507385,
        1.0386956930160522,
        0.7647023797035217
      ],
      "min": [
        -0.29229751229286194,
        -0.0030421316623687744,
        -0.4790761172771454
      ],
      "type": "VEC3"
    },
    {
      "bufferView": 3,
      "byteOffset": 17232,
      "componentType": 5126,
      "count": 1436,
      "max": [
        0.9959906339645386,
        0.9807052612304688,
        0.9981692433357239
      ],
      "min": [
        -0.9959906339645386,
        -0.9949596524238586,
        -0.9981691241264343
      ],
      "type": "VEC3"
    },
    {
      "bufferView": 2,
      "componentType": 5126,
      "count": 1436,
      "max": [
        0.9862143993377686,
        0.9842614531517029
      ],
      "min": [
        0.5070071220397949,
        0.07242909073829651
      ],
      "type": "VEC2"
    },
    {
      "bufferView": 1,
      "componentType": 5125,
      "count": 2124,
      "type": "SCALAR"
    },
    {
      "bufferView": 5,
      "componentType": 5126,
      "count": 3,
      "max": [
        1.0,
        2.275615952082946e-16,
        7.867188412794248e-17,
        0.0,
        0.0,
        1.0,
        0.0,
        0.0,
        0.0,
        0.9630538821220398,
        1.0,
        0.0,
        1.1147664299448898e-16,
        0.0,
        0.2948291301727295,
        1.0
      ],
      "min": [
        1.0,
        0.0,
        -1.1908074892956645e-16,
        0.0,
        -1.7596574789660135e-16,
        0.26930883526802063,
        -0.9630540609359741,
        0.0,
        -1.8708449793230234e-16,
        0.0,
        0.26930883526802063,
        0.0,
        0.0,
        -0.6873067021369934,
        -0.12685413658618927,
        1.0
      ],
      "type": "MAT4"
    },
    {
      "bufferView": 0,
      "componentType": 5123,
      "count": 1436,
      "type": "VEC4"
    },
    {
      "bufferView": 4,
      "componentType": 5126,
      "count": 1436,
      "max": [
        1.0,
        0.0,
        0.0,
        0.0
      ],
      "min": [
        1.0,
        0.0,
        0.0,
        0.0
      ],
      "type": "VEC4"
    },
    {
      "bufferView": 6,
      "componentType": 5126,
      "count": 115,
      "max": [
        4.791666507720947
      ],
      "min": [
        0.0416666679084301
      ],
      "type": "SCALAR"
    },
    {
      "bufferView": 8,
      "componentType": 5126,
      "count": 115,
      "max": [
        -0.05280004069209099,
        0.22182145714759827,
        0.0557202510535717,
        0.998448371887207
      ],
      "min": [
        -0.26601845026016235,
        3.62537182090884e-17,
        -0.41336360573768616,
        0.8471500277519226
      ],
      "type": "VEC4"
    },
    {
      "bufferView": 6,
      "byteOffset": 460,
      "componentType": 5126,
      "count": 108,
      "max": [
        4.791666507720947
      ],
      "min": [
        0.0416666679084301
      ],
      "type": "SCALAR"
    },
    {
      "bufferView": 7,
      "componentType": 5126,
      "count": 108,
      "max": [
        1.0000001192092896,
        1.0000001192092896,
        1.0
      ],
      "min": [
        0.9999998807907104,
        0.9999998211860657,
        0.9999998807907104
      ],
      "type": "VEC3"
    }
  ],
  "animations": [
    {
      "channels": [
        {
          "sampler": 0,
          "target": {
            "node": 9,
            "path": "rotation"
          }
        },
        {
          "sampler": 1,
          "target": {
            "node": 9,
            "path": "scale"
          }
        }
      ],
      "name": "MoveHead",
      "samplers": [
        {
          "input": 7,
          "interpolation": "LINEAR",
          "output": 8
        },
        {
          "input": 9,
          "interpolation": "LINEAR",
          "output": 10
        }
      ]
    }
  ],
  "asset": {
    "extras": {
      "author": "gringlas (https://sketchfab.com/gringlas)",
      "license": "CC-BY-NC-SA-4.0 (http://creativecommons.org/licenses/by-nc-sa/4.0/)",
      "source": "https://sketchfab.com/3d-models/lowpoly-bunny-823a5ab7b1f044e8815f734016f520a2",
      "title": "LowPoly Bunny"
    },
    "generator": "Sketchfab-12.85.0",
    "version": "2.0"
  },
  "bufferViews": [
    {
      "buffer": 0,
      "byteLength": 11488,
      "byteStride": 8,
      "name": "shortBufferViews",
      "target": 34962
    },
    {
      "buffer": 0,
      "byteLength": 8496,
      "byteOffset": 11488,
      "name": "floatBufferViews",
      "target": 34963
    },
    {
      "buffer": 0,
      "byteLength": 11488,
      "byteOffset": 19984,
      "byteStride": 8,
      "name": "floatBufferViews",
      "target": 34962
    },
    {
      "buffer": 0,
      "byteLength": 34464,
      "byteOffset": 31472,
      "byteStride": 12,
      "name": "floatBufferViews",
      "target": 34962
    },
    {
      "buffer": 0,
      "byteLength": 22976,
      "byteOffset": 65936,
      "byteStride": 16,
      "name": "floatBufferViews",
      "target": 34962
    },
    {
      "buffer": 0,
      "byteLength": 192,
      "byteOffset": 88912,
      "name": "floatBufferViews"
    },
    {
      "buffer": 0,
      "byteLength": 892,
      "byteOffset": 89104,
      "name": "floatBufferViews"
    },
    {
      "buffer": 0,
      "byteLength": 1296,
      "byteOffset": 89996,
      "byteStride": 12,
      "name": "floatBufferViews"
    },
    {
      "buffer": 0,
      "byteLength": 1840,
      "byteOffset": 91292,
      "byteStride": 16,
      "name": "floatBufferViews"
    }
  ],
  "buffers": [
    {
      "byteLength": 93132,
      "uri": "scene.bin"
    }
  ],
  "images": [
    {
      "uri": "textures/Material.001_baseColor.png"
    }
  ],
  "materials": [
    {
      "name": "Material.001",
      "pbrMetallicRoughness": {
        "baseColorTexture": {
          "index": 0
        },
        "metallicFactor": 0.0,
        "roughnessFactor": 0.8338414634
      }
    }
  ],
  "meshes": [
    {
      "name": "Object_0",
      "primitives": [
        {
          "attributes": {
            "JOINTS_0": 5,
            "NORMAL": 1,
            "POSITION": 0,
            "TEXCOORD_0": 2,
            "WEIGHTS_0": 6
          },
          "indices": 3,
          "material": 0,
          "mode": 4
        }
      ]
    }
  ],
  "nodes": [
    {
      "children": [
        1
      ],
      "matrix": [
        1.0,
        0.0,
        0.0,
        0.0,
        0.0,
        2.220446049250313e-16,
        -1.0,
        0.0,
        0.0,
        1.0,
        2.220446049250313e-16,
        0.0,
        0.0,
        0.0,
        0.0,
        1.0
      ],
      "name": "Sketchfab_model"
    },
    {
      "children": [
        2
      ],
      "name": "root"
    },
    {
      "children": [
        3
      ],
      "matrix": [
        1.0,
        0.0,
        0.0,
        0.0,
        0.0,
        2.220446049250313e-16,
        1.0,
        0.0,
        0.0,
        -1.0,
        2.220446049250313e-16,
        0.0,
        0.0,
        0.0,
        0.0,
        1.0
      ],
      "name": "GLTF_SceneRootNode"
    },
    {
      "children": [
        4
      ],
      "name": "Armature_3"
    },
    {
      "children": [
        5,
        7,
        6
      ],
      "name": "GLTF_created_0"
    },
    {
      "children": [
        8
      ],
      "name": "GLTF_created_0_rootJoint"
    },
    {
      "name": "Cube_2"
    },
    {
      "mesh": 0,
      "name": "Object_7",
      "skin": 0
    },
    {
      "children": [
        9
      ],
      "name": "Chest_1",
      "rotation": [
        0.6044382452964783,
        2.1340417734004535e-17,
        -1.2663215353345695e-16,
        0.7966520190238953
      ],
      "scale": [
        1.0,
        1.0,
        0.9999998211860657
      ],
      "translation": [
        -3.09803599390316e-20,
        0.3742777705192566,
        0.24366308748722076
      ]
    },
    {
      "name": "Head_0",
      "rotation": [
        -0.12195305526256561,
        3.62537182090884e-17,
        2.0916327197032273e-17,
        0.9925358891487122
      ],
      "translation": [
        -1.0212589334686693e-23,
        0.2982293665409088,
        2.231407947306252e-08
      ]
    }
  ],
  "samplers": [
    {
      "magFilter": 9729,
      "minFilter": 9987,
      "wrapS": 10497,
      "wrapT": 10497
    }
  ],
  "scene": 0,
  "scenes": [
    {
      "name": "Sketchfab_Scene",
      "nodes": [
        0
      ]
    }
  ],
  "skins": [
    {
      "inverseBindMatrices": 4,
      "joints": [
        5,
        8,
        9
      ],
      "skeleton": 5
    }
  ],
  "textures": [
    {
      "sampler": 0,
      "source": 0
    }
  ]
}
